<?xml version="1.0" encoding="UTF-8" standalone="no"?>
<!-- Created with Inkscape (http://www.inkscape.org/) -->
<svg xmlns:dc="http://purl.org/dc/elements/1.1/" xmlns:cc="http://creativecommons.org/ns#" xmlns:rdf="http://www.w3.org/1999/02/22-rdf-syntax-ns#" xmlns:svg="http://www.w3.org/2000/svg" xmlns="http://www.w3.org/2000/svg" version="1.1" width="1312" height="736" id="svg2">
  <metadata id="metadata29">
    <rdf:RDF>
      <cc:Work rdf:about="">
        <dc:format>image/svg+xml</dc:format>
        <dc:type rdf:resource="http://purl.org/dc/dcmitype/StillImage"/>
        <dc:title/>
      </cc:Work>
    </rdf:RDF>
  </metadata>
  <defs id="defs27"/>
  <path d="m 80,528 112,0 0,112 -112,0 z m 16,16 80,0 0,80 -80,0 z m 16,16 48,0 0,48 -48,0 z m 64,-48 16,0 0,-16 -16,0 z m 0,-32 16,0 0,-16 -16,0 z m 0,-32 16,0 0,-16 -16,0 z m 0,-32 16,0 0,-16 -16,0 z m 0,-32 16,0 0,-16 -16,0 z m 0,-32 16,0 0,-16 -16,0 z m 0,-32 16,0 0,-16 -16,0 z m 0,-32 16,0 0,-16 -16,0 z m 0,-32 16,0 0,-16 -16,0 z m -96,-144 112,0 0,112 -112,0 z m 16,16 80,0 0,80 -80,0 z m 16,16 48,0 0,48 -48,0 z m 272,80 0,-16 -16,0 0,16 z m -32,0 0,-16 -16,0 0,16 z m -32,0 0,-16 -16,0 0,16 z m -32,0 0,-16 -16,0 0,16 z m -32,0 0,-16 -16,0 0,16 z m -32,0 0,-16 -16,0 0,16 z m 256,0 0,-16 -16,0 0,16 z m -32,0 0,-16 -16,0 0,16 z m -32,0 0,-16 -16,0 0,16 z m 80,-112 112,0 0,112 -112,0 z m 16,16 80,0 0,80 -80,0 z m 16,16 48,0 0,48 -48,0 z m -64,432 80,0 0,-80 -80,0 z m 16,-16 48,0 0,-48 -48,0 z m 16,-16 16,0 0,-16 -16,0 z m 256,-272 0,-16 -16,0 0,16 z m -32,0 0,-16 -16,0 0,16 z m 16,16 0,-16 -16,0 0,16 z m -32,0 0,-16 -16,0 0,16 z m 48,16 0,-16 -16,0 0,16 z m -32,0 0,-16 -16,0 0,16 z m 16,16 0,-16 -16,0 0,16 z m -32,0 0,-16 -16,0 0,16 z m 80,16 112,0 0,112 -112,0 z m 16,16 80,0 0,80 -80,0 z m 16,16 48,0 0,48 -48,0 z m -16,176 80,0 0,-80 -80,0 z m 16,-16 48,0 0,-48 -48,0 z m 16,-16 16,0 0,-16 -16,0 z m 0,128 16,0 0,-16 -16,0 z m 0,-32 16,0 0,-16 -16,0 z m 0,-32 16,0 0,-16 -16,0 z m -528,-464 0,16 16,0 0,16 -16,0 0,16 -16,0 0,32 -16,0 0,-32 -16,0 0,-16 -32,0 0,-16 16,0 0,-16 z m -96,32 16,0 0,16 32,0 0,16 -16,0 0,16 16,0 0,16 -48,0 z m 96,16 0,16 16,0 0,16 -32,0 0,16 80,0 0,-16 -32,0 0,-16 16,0 0,-16 z m 32,-48 0,16 16,0 0,32 48,0 0,16 16,0 0,16 32,0 0,-16 -16,0 0,-32 -32,0 0,-16 -16,0 0,16 -16,0 0,-32 z m 80,0 16,0 0,16 -16,0 z m 16,16 32,0 0,16 -32,0 z m 32,64 16,0 0,-32 -16,0 z m -384,48 16,0 0,16 16,0 0,16 -16,0 0,16 -16,0 z m 32,0 0,16 16,0 0,16 16,0 0,-16 32,0 0,-16 z m 96,-16 0,16 16,0 0,-16 z m -128,80 16,0 0,32 16,0 0,-16 16,0 0,16 16,0 0,-16 -16,0 0,-16 -16,0 0,-16 48,0 0,-16 16,0 0,32 -16,0 0,48 -16,0 0,16 32,0 0,32 -16,0 0,16 16,0 0,16 -32,0 0,-48 -16,0 0,-16 -48,0 z m 0,80 0,16 16,0 0,-16 z m 16,16 0,16 32,0 0,-16 z m -16,16 0,16 16,0 0,-16 z m 0,32 16,0 0,64 -16,0 z m 32,-16 0,48 16,0 0,16 16,0 0,-48 -16,0 0,-16 z m 0,64 16,0 0,16 -16,0 z m 64,0 -16,0 0,16 16,0 z m 32,-240 0,16 -16,0 0,48 16,0 0,32 16,0 0,-16 16,0 0,16 16,0 0,32 16,0 0,16 32,0 0,16 -16,0 0,16 32,0 0,-32 16,0 0,-16 -48,0 0,-16 -16,0 0,-16 16,0 0,-16 -32,0 0,-16 32,0 0,-16 -48,0 0,-32 -16,0 0,-16 z m 0,32 0,16 16,0 0,-16 z m -16,64 16,0 0,32 16,0 0,-32 16,0 0,48 -16,0 0,16 16,0 0,-16 16,0 0,16 16,0 0,16 -48,0 0,16 -16,0 0,32 -16,0 0,-48 16,0 0,-32 -16,0 z m 32,96 0,16 32,0 0,-16 z m 48,-16 16,0 0,16 -16,0 z m 16,16 16,0 0,16 -16,0 z m 80,0 16,0 0,16 -16,0 z m -144,160 16,0 0,16 -16,0 z m -16,16 16,0 0,16 -16,0 z m 80,0 32,0 0,16 -32,0 z m 48,16 16,0 0,-32 -16,0 z m -32,-48 16,0 0,16 -16,0 z m 32,-48 16,0 0,16 -16,0 z m 32,16 16,0 0,16 -16,0 z m -16,32 16,0 0,16 -16,0 z m 240,16 16,0 0,16 -16,0 z m -48,-32 32,0 0,16 -32,0 z m 48,-64 16,0 0,16 -16,0 z m 0,-96 16,0 0,16 -16,0 z m -112,-144 16,0 0,16 -16,0 z m -16,-32 16,0 0,32 -16,0 z m -96,-64 16,0 0,16 -16,0 z m 32,16 16,0 0,16 -16,0 z m 32,32 16,0 0,16 -16,0 z m -64,48 16,0 0,16 -16,0 z m 64,0 16,0 0,16 -16,0 z m 16,16 16,0 0,16 -16,0 z m -64,16 -16,0 0,16 16,0 z m -48,-16 16,0 0,16 -16,0 z m -16,0 -16,0 0,16 16,0 z m -64,-16 16,0 0,16 -16,0 z m 16,-16 16,0 0,16 -16,0 z m 208,128 16,0 0,32 -16,0 z m -16,-16 16,0 0,16 -16,0 z m -16,48 16,0 0,16 -16,0 z m 16,16 16,0 0,16 -16,0 z m -192,-192 -32,0 0,32 16,0 0,-16 16,0 z m 16,-16 0,32 16,0 0,16 16,0 0,16 16,0 0,-32 48,0 0,-32 -32,0 0,16 -16,0 0,-16 -16,0 0,16 -16,0 0,-16 z m 112,16 0,16 -16,0 0,16 16,0 0,16 -16,0 0,16 48,0 0,-16 -16,0 0,-16 16,0 0,-16 -16,0 0,-16 z m 32,64 0,16 -32,0 0,16 48,0 0,16 16,0 0,-32 -16,0 0,-16 z m 48,0 0,32 16,0 0,-16 16,0 0,-16 z m 16,-64 0,16 48,0 0,16 16,0 0,48 -16,0 0,-32 -16,0 0,48 -16,0 0,16 -16,0 0,32 16,0 0,-16 16,0 0,-16 16,0 0,32 -16,0 0,32 -32,0 0,16 48,0 0,-16 16,0 0,-16 16,0 0,16 16,0 0,-16 16,0 0,-64 -32,0 0,16 16,0 0,16 -16,0 0,16 -16,0 0,-16 16,0 0,-16 -16,0 0,-16 16,0 0,-48 16,0 0,16 16,0 0,-48 -32,0 0,-16 z m 64,176 0,32 -48,0 0,32 32,0 0,-16 64,0 0,-16 -16,0 0,-16 -16,0 0,-16 z m 16,64 0,16 -32,0 0,16 16,0 0,16 16,0 0,-16 16,0 0,-32 z m 0,64 0,32 16,0 0,-16 16,0 0,-16 z m -80,32 0,16 16,0 0,16 16,0 0,-32 z m 32,32 0,16 -32,0 0,16 64,0 0,-16 -16,0 0,-16 z m -144,-32 0,32 -16,0 0,16 32,0 0,-16 16,0 0,-16 -16,0 0,-16 z m 16,48 0,16 48,0 0,-16 -16,0 0,-16 -16,0 0,16 z m 16,-48 0,16 16,0 0,16 16,0 0,16 48,0 0,-16 -16,0 0,-16 -16,0 0,-16 z m 16,-32 0,16 32,0 0,-16 z m 64,-64 0,16 16,0 0,-16 z m -16,-32 0,16 -16,0 0,-16 -16,0 0,-16 -16,0 0,-16 -16,0 0,48 32,0 0,32 16,0 0,-16 32,0 0,-32 z m -48,48 0,16 -48,0 0,-16 -16,0 0,48 16,0 0,16 16,0 0,16 16,0 0,-32 -16,0 0,-16 48,0 0,-32 z m -112,64 0,32 32,0 0,-16 -16,0 0,-16 z m -64,16 0,48 -16,0 0,16 32,0 0,-32 16,0 0,-16 -16,0 0,-16 z m -48,32 16,0 0,-16 16,0 0,-48 48,0 0,16 32,0 0,-16 -16,0 0,-16 16,0 0,16 16,0 0,-16 16,0 0,-16 -16,0 0,-32 32,0 0,-16 -32,0 0,-16 16,0 0,-16 48,0 0,-32 32,0 0,16 16,0 0,-48 -16,0 0,16 -32,0 0,-16 16,0 0,-16 -16,0 0,-16 -16,0 0,16 -16,0 0,-16 -16,0 0,16 -16,0 0,32 16,0 0,-16 16,0 0,16 16,0 0,32 -16,0 0,-32 -16,0 0,32 -16,0 0,16 -16,0 0,32 -16,0 0,16 16,0 0,16 -16,0 0,16 -16,0 0,-32 -16,0 0,48 -32,0 0,-16 16,0 0,-32 -16,0 0,16 -32,0 0,32 16,0 0,16 -16,0 z m 112,-288 -16,0 0,16 48,0 0,-16 -16,0 0,-16 -16,0 z" id="path13" style="fill-rule:evenodd"/>
  <path d="m 688,79.999997 64,0 0,-64 -64,0 z M 80,512 l 96,0 0,-48 -96,0 z m 400,-400 -48,0 0,96 48,0 z" id="path271" style="opacity:0.75;fill:#4242ff;fill-rule:evenodd"/>
  <path d="m 688,176 64,0 0,64 -64,0 z m -464,-64 0,96 208,0 0,-96 z m 0,112 0,32 -32,0 0,256 16,0 0,128 400,0 0,-384 -128,0 0,-32 z m 240,272 80,0 0,80 -80,0 z M 80,256 l 96,0 0,208 -96,0 z" id="path273" style="opacity:0.75;fill:#a1a1a1;fill-rule:evenodd"/>
  <path d="m 688,95.999997 64,0 L 752,160 688,160 z M 208,112 l 16,0 0,96 -16,0 z m -128,128 96,0 0,16 -96,0 z m 112,0 16,0 0,-16 16,0 0,32 -32,0 z m 16,272 16,0 0,128 -16,0 z m 272,-272 128,0 0,16 -128,0 z" id="path275" style="opacity:0.75;fill:#ff4242;fill-rule:evenodd"/>
  <path d="m 688,656 64,0 0,64.00002 -64,0 z M 80,112 l 528,0 0,528 -528,0 z m -64,-64.000003 656,0 0,656.000023 -656,0 z" id="rect5661" style="fill:#41ff41;fill-opacity:0.74901961;fill-rule:evenodd;stroke:none"/>
  <text x="768" y="60" id="text5665" xml:space="preserve" style="font-size:32px;font-style:normal;font-variant:normal;font-weight:normal;font-stretch:normal;line-height:125%;letter-spacing:0px;word-spacing:0px;fill:#000000;fill-opacity:1;stroke:none;font-family:DejaVu Sans;-inkscape-font-specification:DejaVu Sans"><tspan x="768" y="60" id="tspan5667">1. Version information</tspan></text>
  <text x="768" y="140" id="text5665-5" xml:space="preserve" style="font-size:32px;font-style:normal;font-variant:normal;font-weight:normal;font-stretch:normal;line-height:125%;letter-spacing:0px;word-spacing:0px;fill:#000000;fill-opacity:1;stroke:none;overflow:visible;font-family:DejaVu Sans;-inkscape-font-specification:DejaVu Sans"><tspan x="768" y="140" id="tspan5667-6">2. Format information</tspan></text>
  <text x="768" y="220" id="text5665-5-1" xml:space="preserve" style="font-size:32px;font-style:normal;font-variant:normal;font-weight:normal;font-stretch:normal;line-height:125%;letter-spacing:0px;word-spacing:0px;fill:#000000;fill-opacity:1;stroke:none;overflow:visible;font-family:DejaVu Sans;-inkscape-font-specification:DejaVu Sans"><tspan x="768" y="220" id="tspan5667-6-6">3. Data and error correction keys</tspan></text>
  <text x="768" y="300" id="text5665-5-15" xml:space="preserve" style="font-size:32px;font-style:normal;font-variant:normal;font-weight:normal;font-stretch:normal;line-height:125%;letter-spacing:0px;word-spacing:0px;fill:#000000;fill-opacity:1;stroke:none;overflow:visible;font-family:DejaVu Sans;-inkscape-font-specification:DejaVu Sans"><tspan x="768" y="300" id="tspan5667-6-61">4. Required patterns</tspan></text>
  <text x="912" y="396" id="text5665-5-15-2" xml:space="preserve" style="font-size:32px;font-style:normal;font-variant:normal;font-weight:normal;font-stretch:normal;line-height:125%;letter-spacing:0px;word-spacing:0px;fill:#000000;fill-opacity:1;stroke:none;overflow:visible;font-family:DejaVu Sans;-inkscape-font-specification:DejaVu Sans"><tspan x="912" y="396" id="tspan5667-6-61-1">4.1. Position</tspan></text>
  <text x="912" y="508" id="text5665-5-15-2-0" xml:space="preserve" style="font-size:32px;font-style:normal;font-variant:normal;font-weight:normal;font-stretch:normal;line-height:125%;letter-spacing:0px;word-spacing:0px;fill:#000000;fill-opacity:1;stroke:none;overflow:visible;font-family:DejaVu Sans;-inkscape-font-specification:DejaVu Sans"><tspan x="912" y="508" id="tspan5667-6-61-1-5">4.2. Alignment</tspan></text>
  <text x="912" y="604" id="text5665-5-15-2-8" xml:space="preserve" style="font-size:32px;font-style:normal;font-variant:normal;font-weight:normal;font-stretch:normal;line-height:125%;letter-spacing:0px;word-spacing:0px;fill:#000000;fill-opacity:1;stroke:none;overflow:visible;font-family:DejaVu Sans;-inkscape-font-specification:DejaVu Sans"><tspan x="912" y="604" id="tspan5667-6-61-1-7">4.3. Timing</tspan></text>
  <text x="768" y="700" id="text5665-5-0" xml:space="preserve" style="font-size:32px;font-style:normal;font-variant:normal;font-weight:normal;font-stretch:normal;line-height:125%;letter-spacing:0px;word-spacing:0px;fill:#000000;fill-opacity:1;stroke:none;overflow:visible;font-family:DejaVu Sans;-inkscape-font-specification:DejaVu Sans"><tspan x="768" y="700" id="tspan5667-6-4">5. Quiet zone</tspan></text>
</svg>